<?xml version="1.0" encoding="UTF-8"?>
<svg id="Layer_1" xmlns="http://www.w3.org/2000/svg" xmlns:xlink="http://www.w3.org/1999/xlink" version="1.1" viewBox="0 0 1080 1080">
  <!-- Generator: Adobe Illustrator 30.4.0, SVG Export Plug-In . SVG Version: 2.1.4 Build 226)  -->
  <defs>
    <style>
      .st0, .st1 {
        fill: none;
      }

      .st2 {
        fill: #ff7bac;
      }

      .st3 {
        fill: #a67c52;
      }

      .st4 {
        fill: #8cc63f;
      }

      .st5 {
        font-size: 124.79px;
      }

      .st5, .st6, .st7, .st8, .st9, .st10, .st11, .st12, .st13 {
        fill: #a13624;
        font-family: ChelseaMarket-Regular, 'Chelsea Market';
      }

      .st6 {
        font-size: 158.83px;
      }

      .st7 {
        font-size: 158.83px;
      }

      .st8 {
        font-size: 158.83px;
      }

      .st9 {
        font-size: 158.83px;
      }

      .st10 {
        font-size: 158.83px;
      }

      .st11 {
        font-size: 158.83px;
      }

      .st12 {
        font-size: 158.83px;
      }

      .st13 {
        font-size: 158.83px;
      }

      .st14 {
        fill: #fff;
      }

      .st15 {
        fill: #c69c6d;
      }

      .st16 {
        fill: #754c24;
      }

      .st1 {
        stroke: #000;
        stroke-miterlimit: 10;
        stroke-width: 2.27px;
      }

      .st17 {
        fill: #2c6026;
      }

      .st18 {
        clip-path: url(#clippath);
      }
    </style>
    <clipPath id="clippath">
      <rect class="st0" x="-559.28" y="-20.52" width="2178.17" height="1225.22"/>
    </clipPath>
  </defs>
  <g class="st18">
    <path class="st17" d="M119.32,535.23c-1.32,3.31-3.37,21.53-2.99,29.03.54,10.73,3.67.91,7.25-2.68,12.85-12.88,30.36-18.46,45.23-5.44,4.43,3.88,11.66,16.01,4.69,19.92-14.76,8.28-19.93-7.7-34.84-3.85-6.54,1.69-20.95,10.7-23.13,17.19-1.87,5.55-.02,26.74.75,33.23,3.58,30.25,10.2,55.71,17.6,85.12.76,3.01,2.35,17.48,3.16,17.88,2.28,1.15,8.94-12.43,9.92-14.49,5.98-12.53,6.72-23.87,10.64-35.71,1.91-5.77,9.15-12.31,9.67-4.65.86,12.54-10.78,25.22-9.17,38.04,12.04-5.92,31.18-9.03,40.39-19.22,2.97-3.28,2.88-8.39,5.22-12.12,6.67-10.62,28.21-16.23,38.88-22.61,4.81-2.87,14.12-15.51,15.96-6.8.6,2.84-12.44,17.99-14.77,23.13-2.1,4.64-1.85,10.87-5.74,15.06-5.51,5.93-14.95,8.11-20.41,12.92-6.27,5.53-6.39,16.79-14.69,22.11-8.53,5.47-18.79,5.17-27.44,8.29-7.78,2.8-14.86,10.17-22.51,13.08-2.23.85-9.23,1.06-9.65,1.91-1.01,2.02,14.93,36.98,16.8,37.88,1.72.82,15.38-31.1,19.47-32.86,16.44-17.57,40.82-31.33,61.16-11.52,4.16,4.06,8.06,9.29,9.12,15.14,2.47,13.69-18.35,25.75-28.46,17.16-7.92-6.74,2.55-22.88-18.16-18.52-11.21,2.36-24.57,21.55-28.9,31.41-.52,1.18,11.23.04,16.77,3.8,3.19,2.17,6.83,10.96,1.62,9.66-4.23-1.06-9.7-6.08-14.91-6.08-6.08,0-6.66,1.63-7.32,5.45-1.48,8.53,38.22,48.77,46.38,55.82,2.88-2.02-.04-7.48-1.51-12.52-2.53-8.68-2.86-13.46-1.67-19.97,1.25-6.88,4.9-12.99,6.39-14.32,5.01-4.46,10.14-9.12,14.13-3.59,8.27,11.46-5.06,28.38.76,41.58l5.39-17.8c10.15-16.2,43.48-20.28,49.59,1.62,2.4,8.58-3.94,21.17-13.94,17.21-5.94-2.35-9.24-17.93-18.11-5.82-7.46,10.19-1.77,24.18,7.57,31.1,1.8,1.34,6.97,7.84,8.45,10.42,1.88,3.29,13.12,16.82,11.9,19.28-.72,1.46-12.66,2.12-15.14,1.87-7.02-.71-12.73-5.82-19.7-6.88-10.54-1.6-28.86.71-38.19,5.78-3.79,2.06-11.41,11.38-8.37,15.62,2.3,3.21,28.18-5.45,20.18,14.5-5.22,13.02-22.4,14.49-31.9,4.8-19.58-19.98,3.07-48.16,23.08-56.57-12.72-5.65-28.93,5.12-40.56,3.24-13.33-2.16-9.14-13.68-.77-19.73,8.54-6.17,15.18-4.27,24.66-2.75l25.1,6.6c-2.79-3.2-24.36-23.23-25.69-24.41-4.56-4.06-5.56-5.68-9.44-9.47-1.31-1.28-20.8-24.44-22.99-28.65-1.5-1.93-3.62-3.41-7.32-1.81-5.2,2.26-2.03,15-5.67,17.42-3.57,2.37-7.54-4.98-6.6-11.37,1-6.78,10.53-10.99,9.15-11.25-15.41-2.93-42.13-1.91-40.92,12.61,1.53,18.35,21.13,12.74,25.7,24.62,6.27,16.34-15.83,25.39-29.4,18.77-16.62-8.11-20.34-32.65-15.26-48.66,2.23-7.02,9.57-14.37,12.78-15.73,7.12-3.02,21.96-5.21,30.68-4.5,2.22.18,17.11,2.63,17.49,1.83.45-.97-4.97-8.06-5.98-10.09-4.9-9.81-8.56-20.3-13.28-30.21-14.03-8.65-27.51.44-41.44-9.71-4.52-3.3-10.87-12.81-16.47-13.34-4.53-.43-15.67,4.07-21.25,4.61-20.13,1.96-30.34-26.72-41.23-25.02-1.95.31-9.47,5.61-10.17-.18-1.03-8.54,21.5-11.34,28.24-10.49,13,1.64,10.86,5.22,18.8,10.79,9.6,6.73,16.62-6.2,26.28-6.22,12.44-.03,17.25,16.32,28.4,18.91,1.45-5.53-20.38-31.43-9.78-33.11,4.3-.68,8.54,12.48,10.88,16.21,2.1,3.36,4.2,6.7,6.65,9.82l15.99,17.41-17.19-84.33c-1.23-9.21-1.57-14.03-2.5-21.29-.36-2.79-4.5-23.08-6.04-26.79-6.72-16.2-25.99-38.29-44.71-24.42-8.82,6.53,5.57,18.28-5.31,23.65-10.61,5.23-20.12-3.68-21.63-13.96-3.14-21.35,19.48-36.48,39.18-31.79,17.65,4.2,23.85,17.78,34.05,30.78,1.22,1.56.3,2.28,3.22.87l3.12-41.18c1.53-14.57,2.4-22.73,4.48-31.68,1.08-4.64,3.95-16.46,6.15-20.76-9.54,3.72-17.01,12.22-26.29,16.29-8.65,3.79-16.83,5.7-25.46.93-6.59-3.64-25.87-17.89-28.94-24.15-9.8-19.94-7.45-52.8,8.62-69.15,8.78-8.94,19.82.3,27.05,6.34,6.82,5.69,16.78,12.02,9.24,21.3-3.87,4.76-8.51,3.87-12.56,7.39-5.75,5.01-8.42,19.52-5.5,26.55,4.09,9.84,22.96,24.24,33.91,20.41,4.77-1.66,15.15-17.06,18.31-21.98,1.07-1.67.23-5.31,3.31-6.31,7.49-2.44,12.54,15.5,14.52,19.44,4.75,9.41,23.54,26.18,34.47,25.72,13.85-.59,1.18-5.66.89-7.4-.13-.76,2.05-7.63,2.68-8.25,9.7-2.09,13.85-8.21,24.43-4.53,12.86,4.48,14.52,17.02,11.49,28.9-5.31,20.83-35.91,21.32-52.36,14.87,0,0-19.99-9-25.26-13.93-1.64-1.54-4.11-5.46-4.87-7.58-.29-.81-4.06-14.39-5.58-16.43-.45,2.85-2.32,10.33-2.66,12.64-1.06,7.1-5.36,30.68-5.36,30.68"/>
    <path class="st17" d="M810.73,820.07c.59,10.63-9.17,21.74-12.68,31.63-.63,1.78-2.64,4.75,1.14,3.31,18.36-20.31,47.13-46.59,58.4-71.1,5.01-10.9,7.6-42.27-9.28-40.91-8.54.69-5.89,3.45-8.39,6.98-4,5.66-10.13-3.67-5.44-9.64,6.32-8.06,18.69-.78,21.19-3.67,1.87-2.17-27.47-17.7-33.66-10.79-1.79,2,.72,15.37-7.82,19.34-7.36,3.42-17.3,5.79-22.88-1.35-9.19-11.78-5.86-23.01,3.69-32.83,9.88-10.16,14.14-11.49,27.9-10.15,21.99,2.15,42.38,15.59,47.45,38.11,1.2,5.35-2.41,22.1,5.67,13.12,1.09-1.21,8.41-16.62,8.69-17.99,2.5-12.47-2.83-13.73-7.37-22.05-3.96-7.25-5.34-17.45-13.51-20.87-4.09-1.71-8.81-1.12-13.24-3.36-12.09-6.13-9.77-21.27-17.49-32.61-3.89-5.72-17.48-15.09-18.96-18.46-1.69-3.85-.43-16.39-3.38-21.54,16.69-1.68,18.12,26.86,31.93,27.13,5.81.11,9.21,10.66,20.29,25.69,3.61,4.89,15.12,21.14,15.66,16.43,2.05-17.93,6.76-44.76,8.57-43.53,2.6,1.78,5.68,5.89,4.11,8.21-2.87,4.24-3,8.86-3.83,17.93-1.29,14.13,1.81,30.35,3.92,31.44,5.81,2.99,40.14-73.15,42.44-80.31,6.79-21.08-14.91-46.81-35.87-47.62-15.71-.61-32.76,16.32-38.69-5.88-4.73-17.7,17.46-26.43,31.64-26.99,28.66-1.13,45.31,35.06,49.31,58.92,2.25-2.76,6.64-19.04,7.25-21.12,2.79-9.53,5.27-22.35,6.25-31.77.48-4.6,1.79-36.02,2.42-41.94-4.28-4.6-6.68,1.91-9.78,3.74-19.94,11.78-36.15,11.11-57.99,6.26-3.28-.73-20.5-6.61-22.46-8.43-4.42-4.09-8.74-12.29-9.77-17.44-6.07-30.22,34.18-43.29,48.15-22.7,11.71,17.26-8.75,12.13-18.41,17.41-3.07,1.68-4.71,6.5-.82,8.41,3.73,1.84,36.1,4.69,40.86,3.94,14.82-2.31,13.33-7.23,21.44-13.78,11.95-9.65,12.79,1.03,20.97,8.17,12.27,10.71,34.72,24.45,51.47,21.84,11.22-1.75,27.68-15.83,24.51-27.96-2.36-9.04-10.58.75-17.44,1.15-4.2.25-14.45-2.32-16.31-6.64-10.74-25.05,15.77-31.9,34.88-24.3,15.87,6.31,26.71,19.43,26.74,36.32,0,4.05-5.54,24.3-18.07,30.76-9.08,4.68-33.67,5.99-46.23,3.99-10.98-1.58-25.4-5.4-29.33-6.99-2.64-1.07-15.55-12.97-17.97-9.19-.22.34,1.4,5.7,1.33,7.93-.2,6.5-.57,22.84-1.73,28.52-1.57,7.66-5.58,24.81-9.16,35.07-.88,2.51-4.97,13.27-4.25,16.55,6.48-.58,11.65-9.23,16.8-12.28,13.8-8.17,36.35-8.3,48.81,2.18,14.28,12,27.02,34.99.83,41.49-13.23,3.28-12.88-13.67-16.55-21.11-10.13-20.57-41.56-10.74-53.17,3.01-2.49,2.95-9.41,20.49-10.49,24.06-1.9,6.23-6.28,17.12-8.34,20.83-1.43,2.57-19.75,46.71-22.59,52.96.81,1.5,3.67-.11,4.92-.67,7.04-3.17,19.24-8.97,25.28-13.23,3.71-2.62,10.84-12.16,11.64-12.46.54-.2,10.94-1.79,11.45-1.53,2.13,1.1-.97,3.8-1.75,4.64-4.49,4.79-30.56,21.04-31.35,22.81-3.02,6.79,19.86.66,22.57-.22,13.26-4.28,20.33-14.12,35.97-9.94,6.79,1.81,16.71,9.42,23.04,10.07,3.89.4,12.22,3.17,13.74,4.56,1.68,1.54,12.49-.83,10.74,5.44-3.35,12-24.73,2.71-30.57,3.33-5.05.54-8.73,3.77-13.09,4.63-19.47,3.88-48.18,4.01-68.99,5.25-5.2.31-18.38-3.45-21.39-.82-1.45,3.09-12.17,22.41-10.53,23.44.79.5,12.55-8.32,16.01-9.56,26.42-9.45,62.29-2.55,70.6,27.62,2.87,10.4-.8,36.36-12.58,39.45-11.21,2.95-26.69-4.93-24.17-18.26,1.14-6.06,12.66-11.18,11.18-17.15-2.04-8.24-15.29-22.04-23.86-23.02-2.44-.28-15.87,1.84-16.51,2.72-1.29,1.77,6.43,7.28,7.51,9.23,7.09,12.78-3.95,21.25-4.9,17.5-1.17-4.6,1.84-6.2-2.7-11.68-6.29-7.59-15.99-6.55-24.31-3.17-11.54,4.69-25.23,34.77-33.98,46.07-8.38,10.82-21.9,20.96-29.93,32.14,15.03-2.37,43.08-12.81,56.68-4.27,10.75,6.75,9.88,19.52-2.02,22.85-15.2,4.25-41.9-3.02-58.42.19,3.2,3.29,7.35,2.22,11.91,3.5,2.65.74,9.07,2.87,11.73,4.61,14.08,9.18,21.99,21.89,14.63,39.06-5.56,12.97-33.16,23.47-35.93,4.83-.74-5,6.26-14.33,9.8-17.83,2.94-2.9,8.85-1.39,5.79-9.13-2.01-5.11-5.31-5.37-9.42-6.43-2.29-.59-6.48-.32-9.24-.6-6.81-.69-27.97,5.29-34.5,8.72-4.53,2.38-12.41,11.48-15.05,12.27-1.23.37-8.42-1.03-8.75-1.32-2.39-2.07,4.07-6.6,5.03-8.93,1.18-2.88,1.93-6.07,3.39-9.66,4.28-10.53,10.85-27.03,6.95-38.39-1.3-3.78-16.36-12.63-17.57-11.21-1.91,2.24,2.88,29.29-15.47,18.97-13.15-7.4-13.8-24.68-1.67-33.23,16.25-11.45,37.26-4.96,46.21,11.98,2.23,4.23,2.67,7.48,4.17,11.49,3.35,8.98,4.06-8.42,3.66-11.72-1.24-10.3-13.15-37.32,4.46-38.95,1.3-.12,8.72-.54,11.56,1.81,3.24,2.68,6.27,21.31,6.67,28.66"/>
    <path d="M889.72,778.75c-4.6,2.23-12,11.61-14.55,14.68-6.28,7.54-13.55,12.78-13.71,19.27-.06,2.66,8.72,11.21,12.22,11.61,5.76.65,12.51-6.97,19.49-15.04,4.22-4.87,13.77-13.59,12.94-17.93-1.49-7.77-12-14.72-16.4-12.59"/>
    <path class="st4" d="M898.47,799.17c-.34,2.9-13.22,16.51-15.35,17.03-2.22.54-13.64-10.58-12.97-12.77.4-1.31,12.83-15.61,14.1-15.64,1.72-.04,14.48,9.15,14.22,11.38"/>
    <path class="st16" d="M868.52,805.8c-.99-.12-5.47,5.53-5.55,6.45-.11,1.28,2,3.53,4.32,5.87,2.32,2.34,4.94,3.8,6.18,4.15,2.47.71,7.53-3.65,7.25-4.57-.34-1.14-3.35-2.49-6.37-5.8-2.49-2.73-4.69-5.97-5.83-6.11"/>
    <path class="st16" d="M899.87,796.86c1.28.58,4.21-4.6,4.2-5.41-.03-1.5-1.99-4.2-4.54-6.87s-5.37-4.38-6.56-4.24c-1.61.19-6.87,4.03-6.58,5.46.31,1.55,3.69,1.92,7.27,5.07,2.31,2.03,5.43,5.64,6.22,6"/>
    <path d="M836.93,764.61c-3.67,3.26-8.58,13.79-10.31,17.28-4.24,8.56-9.74,15.27-8.79,21.26.39,2.46,9.55,7.98,12.69,7.43,5.17-.91,9.81-9.68,14.58-18.9,2.88-5.57,9.8-16.08,8.35-19.83-2.62-6.73-13.02-10.34-16.53-7.23"/>
    <path class="st4" d="M848.06,781.03c.19,2.75-8.82,18.61-10.61,19.64-1.86,1.08-13.76-6.11-13.54-8.29.13-1.31,8.64-17.68,9.75-18.04,1.51-.49,14.26,4.58,14.4,6.69"/>
    <path class="st16" d="M822.87,794.98c-.89.15-3.87,6.5-3.78,7.37.12,1.2,2.35,2.71,4.79,4.25,2.43,1.53,4.98,2.18,6.12,2.18,2.28,0,6-5.33,5.6-6.09-.49-.95-3.36-1.4-6.58-3.64-2.65-1.84-5.12-4.24-6.15-4.06"/>
    <path class="st16" d="M848.9,778.55c1.22.19,2.92-5.32,2.77-6.06-.28-1.37-2.46-3.33-5.15-5.11-2.69-1.78-5.45-2.6-6.47-2.16-1.38.6-5.35,5.5-4.86,6.74.53,1.33,3.56.79,7.23,2.73,2.37,1.25,5.72,3.74,6.47,3.86"/>
    <path d="M145.86,835.32c1.84,3.66,9.42,9.47,11.91,11.48,6.1,4.94,10.37,10.7,15.57,10.75,2.13.02,8.87-7.11,9.15-9.91.46-4.62-5.72-9.93-12.25-15.43-3.94-3.32-11.03-10.87-14.49-10.16-6.2,1.28-11.65,9.77-9.89,13.27"/>
    <path class="st4" d="M162.1,828.09c2.33.24,13.36,10.39,13.8,12.09.45,1.77-8.31,11.03-10.07,10.52-1.06-.31-12.64-10.09-12.67-11.11-.05-1.38,7.16-11.68,8.94-11.5"/>
    <path class="st16" d="M167.74,851.98c-.08.79,4.48,4.31,5.22,4.37,1.03.07,2.8-1.64,4.65-3.52,1.85-1.88,2.98-4,3.25-4.99.54-1.98-3.01-5.98-3.74-5.75-.9.29-1.96,2.71-4.57,5.16-2.15,2.03-4.73,3.82-4.82,4.73"/>
    <path class="st16" d="M160.24,826.99c.45-1.03-3.73-3.32-4.38-3.3-1.2.04-3.34,1.64-5.45,3.71-2.11,2.07-3.44,4.34-3.32,5.29.17,1.28,3.3,5.45,4.44,5.2,1.23-.27,1.49-2.97,3.97-5.87,1.6-1.87,4.45-4.41,4.73-5.04"/>
    <path d="M1002.14,665.49c4.14-4.69,12.8-8.05,18.52-4.29,2.11,1.39,11.32,10,12.25,12,7.7,16.52-13.17,29.44-25.53,20.33-10.22-7.54-14.65-17.38-5.24-28.04"/>
    <path class="st15" d="M1007.89,691.57c6.08,4.33,12.57,3.71,18.77-.1,6.99-4.3,7.86-14.19,2.36-20.16-3.66-3.96-7.18-6.19-11.96-8.25-.88-.38-1.58-1.6-2.25-1.73-2.81-.55-9.47,3.5-11.44,5.68-7.73,8.59-4.01,18.47,4.53,24.55"/>
    <path class="st2" d="M1013.86,669.42c2.68-.45,8.92,2.53,9.7,5.04,1.68,5.36-1.56,11.29-7.51,11.02-11.29-.52-10.84-14.62-2.2-16.06"/>
    <path class="st1" d="M1013.86,669.42c2.68-.45,8.92,2.53,9.7,5.04,1.68,5.36-1.56,11.29-7.51,11.02-11.29-.52-10.84-14.62-2.2-16.06Z"/>
    <path d="M820.26,613.25c-4.56-3.29-8.53-10.91-5.99-16.62.94-2.11,7.25-11.61,8.87-12.71,13.34-9.02,27.08,8.79,20.72,21.26-5.26,10.31-13.22,15.54-23.6,8.07"/>
    <path class="st15" d="M842.11,604.93c3-6.12,1.66-12.05-2.39-17.34-4.58-5.97-13.24-5.63-17.72.14-2.97,3.83-4.47,7.35-5.66,12.01-.22.86-1.19,1.64-1.22,2.28-.13,2.66,4.19,8.35,6.32,9.92,8.38,6.16,16.47,1.58,20.67-7.01"/>
    <path class="st2" d="M822.21,601.97c-.72-2.42,1.09-8.53,3.17-9.55,4.43-2.17,9.95.14,10.45,5.67.94,10.49-11.31,11.7-13.62,3.88"/>
    <path class="st1" d="M822.21,601.97c-.72-2.42,1.09-8.53,3.17-9.55,4.43-2.17,9.95.14,10.45,5.67.94,10.49-11.31,11.7-13.62,3.88Z"/>
    <path d="M212.03,621.26c3.19-5.38,11.07-10.31,17.38-7.68,2.33.97,12.99,7.7,14.28,9.49,10.66,14.78-7.42,31.39-21.27,24.76-11.45-5.49-17.65-14.32-10.4-26.56"/>
    <path class="st15" d="M222.58,645.8c6.79,3.11,13.05,1.29,18.42-3.62,6.06-5.53,5.06-15.42-1.46-20.24-4.33-3.2-8.21-4.74-13.3-5.86-.94-.21-1.85-1.28-2.54-1.28-2.86-.02-8.65,5.22-10.17,7.73-5.98,9.89-.48,18.9,9.05,23.27"/>
    <path class="st2" d="M224.28,622.92c2.55-.94,9.23.81,10.48,3.14,2.65,4.95.59,11.38-5.31,12.23-11.18,1.61-13.39-12.32-5.17-15.37"/>
    <path class="st1" d="M224.28,622.92c2.55-.94,9.23.81,10.48,3.14,2.65,4.95.59,11.38-5.31,12.23-11.18,1.61-13.39-12.32-5.17-15.37Z"/>
    <path d="M39.64,674.12c-1.61,5.3-7.35,11.18-13.33,10.26-2.21-.34-12.79-3.89-14.27-5.16-12.27-10.47-.21-28.54,13.08-25.75,11,2.31,18.18,8.6,14.52,20.65"/>
    <path class="st15" d="M25.42,655.23c-6.49-1.25-11.49,1.63-15.07,6.98-4.05,6.03-1.11,14.31,5.51,17.09,4.4,1.84,8.05,2.35,12.66,2.24.85-.02,1.86.71,2.45.57,2.47-.59,6.34-6.3,7.12-8.78,3.07-9.76-3.56-16.35-12.67-18.1"/>
    <path class="st2" d="M28.76,675.27c-1.99,1.34-8.11,1.24-9.66-.5-3.32-3.7-2.89-9.66,2-11.63,9.28-3.73,14.1,7.78,7.67,12.13"/>
    <path class="st1" d="M28.76,675.27c-1.99,1.34-8.11,1.24-9.66-.5-3.32-3.7-2.89-9.66,2-11.63,9.28-3.73,14.1,7.78,7.67,12.13Z"/>
    <path d="M184.98,805.5c.47,3.39,4.91,10.02,6.33,12.28,3.5,5.54,5.33,11.24,9.42,12.68,1.68.59,8.92-3.23,9.9-5.38,1.6-3.53-1.85-9.39-5.54-15.49-2.22-3.68-5.8-11.56-8.73-11.92-5.25-.66-11.83,4.59-11.38,7.83"/>
    <path class="st4" d="M199.77,804.15c1.78.81,7.77,11.81,7.66,13.27-.12,1.52-9.54,6.49-10.79,5.61-.75-.53-7.28-11.38-7.03-12.19.33-1.1,8.8-7.32,10.16-6.69"/>
    <path class="st16" d="M197.81,824.55c-.28.6,2.39,4.61,2.96,4.86.79.33,2.66-.54,4.62-1.54,1.96-.99,3.43-2.36,3.91-3.07.96-1.42-.77-5.54-1.41-5.55-.79-.02-2.28,1.62-5,2.86-2.25,1.02-4.76,1.75-5.08,2.45"/>
    <path class="st16" d="M198.59,802.78c.63-.69-2.06-3.63-2.58-3.78-.96-.29-3.08.4-5.31,1.47-2.23,1.07-3.89,2.51-4.05,3.29-.21,1.06,1.15,5.2,2.11,5.31,1.05.12,1.98-1.95,4.72-3.57,1.77-1.05,4.7-2.29,5.1-2.72"/>
    <path d="M923,617.56c.44,2.17-12.88,12.11-18.73,15.49-1.57.9-5.67,3.69-6.84,3.73-2.35.09-8.12-8.17-9.73-10.02-3.23-3.7-10.23-11.14-11.07-15.93-.26-1.49,3.21-5.14,4.28-6.16,5.28-5.02,9.39-7.84,15.22-12.1,3.82-2.78,3.39-6.3,7.98-1.4,2.15,2.3,7.54,10.07,9.11,12.04,2.24,2.8,9.15,11.26,9.78,14.34"/>
    <path class="st16" d="M899.94,611.51c1.35.2,10.1-6.59,9.91-8.13-.19-1.57-6.11-7.84-8.4-10.95-1.2-.39-9.84,6.41-10.6,7.75.53,2.57,7.01,11.02,9.09,11.32"/>
    <path class="st16" d="M908.04,626.75c.36-.98-6.64-11.12-8.48-11.11-1.99,0-10.43,6.99-10.37,8.19-.09,1.67,7.15,10.48,8.93,10.3,1.42-.14,9.43-6.06,9.92-7.38"/>
    <path class="st15" d="M910.42,625.04c1.17.7,9.65-6.27,9.46-7.81-.19-1.57-5.82-8.81-7.91-10.2-1.2-.39-8.88,5.52-9.64,6.86.53,2.57,6.76,10.35,8.09,11.14"/>
    <path class="st15" d="M897.15,613.22c.01-1.25-5.45-9.43-8.62-10.37-1.91-.57-9.09,6.56-9.02,7.76-.09,1.67,6.18,9.6,7.93,9.98,1.4.3,9.7-5.95,9.71-7.36"/>
    <path d="M977.74,619.46c2.21.05,8.94,15.26,10.93,21.71.53,1.73,2.33,6.35,2.11,7.5-.44,2.31-9.77,6.1-11.93,7.26-4.33,2.33-13.13,7.49-17.99,7.25-1.51-.08-4.3-4.28-5.06-5.55-3.72-6.26-5.56-10.9-8.41-17.53-1.86-4.34-5.39-4.71.42-8.09,2.72-1.59,11.5-5.11,13.77-6.21,3.23-1.56,13.01-6.41,16.16-6.34"/>
    <path class="st16" d="M966.71,640.6c.49-1.27-4.18-11.31-5.72-11.47-1.57-.16-9,4.22-12.54,5.75-.64,1.08,4.06,11.02,5.2,12.06,2.62.06,12.3-4.39,13.06-6.34"/>
    <path class="st16" d="M983.37,636.09c-.87-.57-12.32,4-12.72,5.79-.44,1.94,4.5,11.73,5.68,11.93,1.61.46,11.81-4.64,12.03-6.41.18-1.42-3.81-10.54-4.99-11.31"/>
    <path class="st15" d="M982.23,633.38c.94-.99-3.97-10.81-5.5-10.96-1.57-.16-9.89,3.71-11.7,5.44-.64,1.08,3.4,9.88,4.54,10.93,2.62.05,11.59-4.29,12.66-5.41"/>
    <path class="st15" d="M967.76,643.7c-1.22-.29-10.41,3.21-12.03,6.09-.98,1.73,4.37,10.32,5.55,10.52,1.61.46,10.74-3.89,11.5-5.51.6-1.3-3.65-10.78-5.02-11.11"/>
    <path d="M109.01,643.2c1.35,1.75-6.22,16.55-9.98,22.16-1.01,1.5-3.46,5.81-4.5,6.37-2.07,1.11-10.89-3.76-13.15-4.7-4.54-1.89-14.09-5.48-16.96-9.41-.9-1.22.61-6.03,1.12-7.42,2.52-6.84,4.97-11.18,8.32-17.57,2.2-4.18.26-7.15,6.55-4.77,2.95,1.11,11.21,5.72,13.49,6.79,3.25,1.53,13.18,6.07,15.1,8.56"/>
    <path class="st16" d="M85.65,647.94c1.3-.42,6.16-10.37,5.31-11.67-.86-1.32-8.94-4.34-12.36-6.12-1.25.18-6,10.09-6.09,11.63,1.61,2.07,11.16,6.79,13.15,6.15"/>
    <path class="st16" d="M99.65,658.05c-.11-1.04-10.87-7.05-12.51-6.23-1.79.88-6.28,10.88-5.69,11.93.65,1.54,11.04,6.25,12.56,5.31,1.21-.75,5.79-9.6,5.65-11"/>
    <path class="st15" d="M101.03,655.46c1.36.11,5.9-9.89,5.05-11.18-.86-1.32-9.11-5.34-11.6-5.66-1.25.18-5.54,8.87-5.63,10.41,1.61,2.07,10.63,6.31,12.17,6.43"/>
    <path class="st15" d="M83.9,650.71c-.54-1.13-9.05-6.06-12.31-5.51-1.96.33-5.26,9.89-4.68,10.94.65,1.54,9.78,5.89,11.52,5.46,1.39-.35,6.08-9.62,5.47-10.89"/>
    <path d="M151.25,609.24c1.66-1.47,16.93,5.11,22.77,8.5,1.57.91,6.02,3.07,6.65,4.07,1.25,1.99-3.03,11.12-3.82,13.43-1.59,4.65-4.54,14.42-8.27,17.55-1.16.97-6.06-.21-7.48-.63-6.99-2.07-11.49-4.21-18.08-7.14-4.32-1.92-7.15.21-5.2-6.22.92-3.02,4.96-11.56,5.88-13.91,1.31-3.34,5.19-13.55,7.54-15.63"/>
    <path class="st16" d="M157.53,632.24c-.5-1.27-10.76-5.46-11.99-4.53-1.26.95-3.73,9.21-5.29,12.74.26,1.23,10.47,5.32,12.01,5.31,1.96-1.74,6.04-11.58,5.27-13.53"/>
    <path class="st16" d="M166.68,617.6c-1.03.17-6.31,11.31-5.39,12.89,1,1.72,11.27,5.55,12.27,4.89,1.49-.75,5.51-11.43,4.47-12.88-.83-1.16-9.96-5.14-11.35-4.91"/>
    <path class="st15" d="M164.01,616.4c.02-1.36-10.26-5.23-11.49-4.3-1.26.95-4.73,9.44-4.88,11.94.26,1.23,9.21,4.94,10.76,4.93,1.96-1.74,5.59-11.02,5.61-12.57"/>
    <path class="st15" d="M160.4,633.8c-1.09.61-5.45,9.43-4.69,12.65.46,1.94,10.22,4.6,11.23,3.94,1.49-.75,5.24-10.15,4.69-11.85-.44-1.36-10-5.43-11.23-4.74"/>
    <path d="M959.52,440.39c.1.14,1.34.44,1.88.91,10.25,8.76,9.46,10.67,14.15,22.65.31.79,2.58,2.26,1.93,2.9-.17.16-3.49.1-4.61.4-1.19.33-2.21,1.59-3.3,1.77-2.56.43-6.87-1.33-8.93-1.14-1.45.13-2.39,1.57-3.67,1.75-2.11.3-4.39-1.14-6.44-1.27-2.96-.19-16.73,1.76-17.84.41-.91-1.11,2.23-5.04,2.83-6.54,2.69-6.73,4.78-13.73,10.38-19.05.83-.79,2.77-1.44,3.12-2.08.41-.75-.58-2.31-.6-3.45-.09-5.56,3.09-1.55,4.05-1.84.6-.18.75-2.22,2.06-2.39.84-.11,1.4.74,2.28.8.83.05,1.91-1.09,2.91-.46,2.22,1.39-.97,5.49-.2,6.65"/>
    <path class="st2" d="M958.33,438.94c.59-.75,1.41-3.28.76-3.9-.38-.37-1.54.51-2.07.44-.6-.08-1.78-.9-2.33-.66-.67.3-1.08,2.18-1.8,2.33-.76.16-2.39-1.26-3.02-.81-.46.33-.11,1.76.13,2.27,1.46,3.09,7.08,1.92,8.34.32"/>
    <path class="st4" d="M947.55,444.35c-2.92-2.08-9.59,15.61-9.95,18.78-.22,1.92.63,3.3,2.08,3.56,4.18.75,5.72-2.33,7.42-2.6,2.5-.4,8.63,2.74,9.7,2.65.66-.06,4.52-3.3,5.54-3.33.6-.02,2.33,2.51,4.08,2.67,1.03.09,4.62-.86,5.26-1.71.69-.92-.39-7.18-.83-8.66-1.1-3.75-5.69-10.29-9.47-11.67-1.77-.64-8.3-.31-10.2.23-1.48.42-5.34,4.52-5.95,4.02-.41-.34,2.51-3.81,2.32-3.94"/>
    <path d="M962.57,451.06c.58,1.02.69,4.12-.04,2.33-.97-2.38-2.76-2.89-4.55-3.36-2.59-.68-5.69.38-3.78-.96,2.56-1.8,7.64.69,8.38,1.99"/>
    <path d="M998.51,536.75c-2.32.29-7.16,3.91-7.57,3.8-.25-.06-2.02-3.55-2.65-4.34-1.79-2.25-4.41-3.67-7.27-3.3-7.39.96-11.91,4.34-10.86,12.19.28,2.13,1.13,5.74,2.15,7.59,2.36,4.26,8.87,5.78,13.2,3.92,1.04-.45,3.68-2.69,3.92-2.67.39.04,5.01,4.26,6.13,4.98,2.88,1.83,7.56,3.41,10.91,2.21,10.08-3.59,4.22-25.9-7.95-24.38"/>
    <path class="st15" d="M1000.21,559.85c-.91-.24-3.56-1.49-4.37-2.06-1.72-1.23-6.07-5.14-6.6-5.3-.24-.07-4.87,3.05-5.49,3.29-2.37.91-7-.09-8.77-1.85-2.48-2.47-4.55-10.54-3.37-13.78,1.85-5.1,10.68-8.2,14.78-4.25,1.11,1.07,4.23,6.2,4.65,6.36.17.06.9-1,1.29-1.23,1.37-.79,2.6-1.54,3.95-2.33,3.81-2.25,10.19,1.33,12.26,4.67,1.55,2.49,2.24,9.2,1.36,12.06-1.33,4.32-5.67,5.51-9.71,4.42"/>
    <path class="st3" d="M1002.86,541.56c-4.8-.85-8.5,2.1-7.28,7.06.66,2.7,3.37,5.53,6.33,4.16,3.22-1.49,3.7-3.66,1.99-6.77-2.64-4.8-8.31,1.21-4.07,3.99,1.66,1.09,4.24-3.35,3.73-.15-.24,1.52-3.19,2.77-4.64,1.56-5.02-4.19-.82-11.18,5.16-8.05,3.08,1.61,4.9,7.81,2.44,10.63-2.45,2.82-5.65,2.6-8.82.98-6.01-3.08-4.43-8.8-8.41-12.92-2.36-2.44-9.87-4.25-13.03-2.67-8.96,4.47.75,17.39,7.58,15.04.83-.28,3.28-1.81,3.44-1.92.38-.25.99-.94,1.13-1.23.24-.49.4-1.79.36-2.73-.27-5.25-5.92-9.56-10.26-5.47-4.1,3.86,3.01,10.56,6.28,6.11,1.6-2.18-1.63-5.43-3.3-5.09-2.92.6-1.99,4.06.08,4.54.47.11,1.53-.42,1.58-.15.26,1.54-2.64.43-3.1.07-4.51-3.51,2.27-8.16,5.75-3.82,5.61,7.01-4.42,11.8-9.35,5.79-2.93-3.58-4.25-9.04,1.55-10.26,2.85-.6,9.97,1.54,11.56,4.05,1.19,1.88,1.26,5.02,2.44,7.02,2.06,3.49,7.44,6.67,11.54,6.02,7.97-1.28,6.53-14.51-.66-15.78"/>
    <path d="M921.15,543.83c2.34-.01,7.57-3.04,7.97-2.88.24.09,1.59,3.76,2.12,4.62,1.51,2.44,3.95,4.17,6.83,4.13,7.45-.08,12.34-2.91,12.22-10.82-.03-2.15-.45-5.84-1.24-7.79-1.84-4.51-8.13-6.79-12.65-5.45-1.09.32-3.97,2.24-4.2,2.19-.39-.08-4.47-4.82-5.51-5.67-2.64-2.16-7.11-4.27-10.58-3.48-10.43,2.38-7.24,25.22,5.03,25.14"/>
    <path class="st15" d="M922.18,520.69c.87.35,3.36,1.89,4.1,2.56,1.57,1.42,5.42,5.82,5.93,6.04.23.1,5.19-2.46,5.84-2.62,2.46-.62,6.94.91,8.49,2.87,2.18,2.74,3.28,11,1.72,14.08-2.44,4.85-11.57,6.88-15.18,2.48-.97-1.19-3.47-6.66-3.87-6.86-.16-.08-1.01.89-1.43,1.07-1.45.62-2.76,1.22-4.2,1.85-4.05,1.78-9.96-2.52-11.62-6.08-1.24-2.66-1.14-9.4.07-12.14,1.83-4.13,6.28-4.8,10.16-3.25"/>
    <path class="st3" d="M917.4,538.54c4.66,1.41,8.69-1.09,8.06-6.15-.34-2.76-2.7-5.89-5.79-4.88-3.37,1.1-4.1,3.2-2.77,6.49,2.05,5.08,8.39-.22,4.51-3.49-1.52-1.27-4.61,2.82-3.72-.29.42-1.48,3.49-2.38,4.8-1,4.49,4.76-.5,11.2-6.07,7.39-2.87-1.96-3.94-8.33-1.17-10.84,2.77-2.51,5.91-1.92,8.87.07,5.6,3.76,3.36,9.26,6.83,13.82,2.05,2.7,9.3,5.38,12.63,4.19,9.42-3.38,1.3-17.35-5.76-15.82-.85.19-3.47,1.42-3.65,1.5-.41.2-1.09.82-1.26,1.09-.29.46-.61,1.73-.67,2.66-.35,5.25,4.75,10.2,9.55,6.64,4.53-3.35-1.75-10.84-5.52-6.81-1.85,1.98.98,5.59,2.68,5.45,2.97-.25,2.45-3.79.45-4.52-.45-.16-1.57.24-1.58-.04-.08-1.56,2.68-.11,3.08.29,4.07,4.02-3.22,7.83-6.16,3.11-4.75-7.62,5.78-11.2,9.97-4.65,2.49,3.9,3.15,9.48-2.74,10.01-2.91.26-9.72-2.7-11-5.38-.96-2-.66-5.13-1.6-7.26-1.63-3.71-6.61-7.5-10.76-7.33-8.06.33-8.19,13.64-1.2,15.75"/>
    <path d="M97.75,519.01c-2.29.01-7.39,2.97-7.78,2.82-.23-.09-1.55-3.67-2.07-4.52-1.48-2.38-3.85-4.07-6.67-4.04-7.27.08-12.05,2.84-11.94,10.57.03,2.1.44,5.7,1.21,7.6,1.79,4.4,7.94,6.63,12.35,5.32,1.06-.32,3.88-2.18,4.1-2.14.38.08,4.37,4.71,5.38,5.53,2.58,2.11,6.94,4.17,10.33,3.4,10.19-2.32,7.07-24.63-4.91-24.55"/>
    <path class="st15" d="M96.74,541.61c-.85-.34-3.28-1.85-4-2.5-1.53-1.39-5.29-5.68-5.79-5.9-.22-.1-5.07,2.4-5.7,2.56-2.41.61-6.77-.89-8.29-2.8-2.12-2.68-3.2-10.74-1.68-13.75,2.38-4.73,11.3-6.72,14.82-2.42.95,1.16,3.39,6.5,3.78,6.7.16.08.98-.87,1.39-1.04,1.42-.61,2.7-1.19,4.1-1.81,3.95-1.74,9.73,2.46,11.35,5.94,1.21,2.6,1.12,9.18-.07,11.85-1.79,4.04-6.13,4.69-9.92,3.17"/>
    <path class="st3" d="M101.42,524.18c-4.55-1.38-8.48,1.06-7.87,6.01.33,2.7,2.63,5.75,5.66,4.76,3.29-1.08,4.01-3.12,2.71-6.34-2-4.96-8.2.22-4.4,3.41,1.48,1.24,4.5-2.76,3.64.28-.41,1.44-3.41,2.32-4.68.97-4.39-4.64.49-10.94,5.93-7.21,2.8,1.91,3.85,8.13,1.15,10.59-2.7,2.45-5.77,1.88-8.67-.07-5.47-3.67-3.28-9.04-6.67-13.5-2-2.64-9.09-5.26-12.33-4.09-9.2,3.3-1.27,16.95,5.62,15.45.83-.18,3.39-1.38,3.56-1.47.4-.2,1.06-.8,1.23-1.07.29-.45.6-1.69.66-2.6.34-5.12-4.64-9.95-9.32-6.48-4.42,3.28,1.71,10.59,5.39,6.65,1.81-1.93-.96-5.46-2.62-5.32-2.9.24-2.39,3.7-.44,4.41.44.16,1.53-.23,1.55.04.08,1.52-2.61.11-3.01-.28-3.97-3.92,3.14-7.65,6.02-3.04,4.64,7.44-5.64,10.94-9.73,4.54-2.43-3.81-3.08-9.25,2.68-9.77,2.84-.26,9.49,2.64,10.74,5.25.93,1.96.64,5.01,1.56,7.09,1.59,3.62,6.45,7.33,10.5,7.16,7.87-.32,8-13.32,1.17-15.38"/>
    <path d="M134.43,543.71c1.98-.27,6.07-3.42,6.43-3.33.21.05,1.77,3.01,2.31,3.68,1.55,1.9,3.81,3.09,6.24,2.74,6.3-.9,10.12-3.84,9.15-10.52-.27-1.82-1.03-4.89-1.92-6.46-2.06-3.61-7.64-4.84-11.32-3.21-.88.39-3.11,2.34-3.31,2.32-.34-.02-4.32-3.58-5.29-4.19-2.48-1.53-6.49-2.83-9.34-1.77-8.57,3.17-3.32,22.16,7.06,20.73"/>
    <path class="st15" d="M132.73,524c.78.2,3.06,1.23,3.75,1.71,1.48,1.03,5.24,4.32,5.69,4.46.2.06,4.12-2.66,4.65-2.87,2.02-.8,5.97,0,7.51,1.48,2.15,2.08,4,8.95,3.03,11.73-1.53,4.38-9.04,7.11-12.58,3.79-.96-.9-3.68-5.25-4.04-5.38-.15-.05-.75.86-1.09,1.06-1.16.69-2.2,1.34-3.35,2.04-3.23,1.96-8.71-1.03-10.52-3.85-1.35-2.11-2.01-7.83-1.29-10.29,1.09-3.7,4.78-4.76,8.24-3.88"/>
    <path class="st3" d="M130.66,539.65c4.11.67,7.23-1.89,6.14-6.11-.59-2.3-2.94-4.69-5.45-3.49-2.73,1.31-3.12,3.17-1.63,5.8,2.3,4.07,7.08-1.12,3.43-3.46-1.43-.91-3.58,2.9-3.18.17.19-1.3,2.69-2.4,3.95-1.38,4.33,3.53.82,9.54-4.32,6.93-2.65-1.34-4.27-6.61-2.2-9.05,2.06-2.43,4.79-2.28,7.52-.93,5.16,2.56,3.88,7.46,7.32,10.94,2.04,2.06,8.48,3.52,11.16,2.14,7.6-3.91-.83-14.84-6.63-12.76-.7.25-2.78,1.58-2.92,1.68-.32.21-.83.82-.95,1.07-.2.42-.33,1.54-.27,2.33.29,4.48,5.15,8.1,8.82,4.56,3.46-3.34-2.69-8.99-5.43-5.15-1.35,1.88,1.45,4.62,2.87,4.31,2.49-.54,1.66-3.48-.12-3.87-.4-.09-1.3.38-1.35.14-.24-1.31,2.25-.39,2.64-.1,3.89,2.95-1.85,6.99-4.87,3.32-4.87-5.92,3.65-10.13,7.92-5.05,2.54,3.02,3.72,7.67-1.21,8.78-2.43.54-8.53-1.2-9.91-3.33-1.03-1.59-1.13-4.27-2.16-5.97-1.79-2.96-6.43-5.62-9.92-5.01-6.79,1.18-5.42,12.46.73,13.47"/>
    <path d="M150.82,419.5c.83,1.79-2.79,3.3-2.85,3.54-.44,1.79,3.46,4.33,4.22,5.4,2.4,3.33.22,5.41.29,8.25.01.52,1.8,4.59,2.79,6.76.89,1.95-2.12,7.59-5.62,8.51-8.27,2.17-25.29-1.1-31.86-6.5-4.75-3.9-5.11-5.3-1.45-11.4,1.63-2.71,3.04-2.96,4.72-5.41.54-.79,4.97-3.27,5.19-3.96.24-.8-2.49-1.75-1.56-3.56,1.43-2.79,13.38-4.09,15.2-4.2,1.59-.1,10.18.93,10.94,2.56"/>
    <path class="st15" d="M128.16,421.39c.11.28,8.49,3.72,8.87,3.74,1.69.11,10.4-3.9,11.59-4.83.84-.65-4.81-1.52-8.64-1.54-5.15-.03-11.91,2.41-11.82,2.63"/>
    <path class="st14" d="M147.15,425.14c-1.32-1.25-6.05.59-7.35,1.3-4.22,2.29,5.03,5.15,9.1,5.14,4.42,0-1.15-5.88-1.75-6.44"/>
    <path d="M128.55,423.27c-1.98-.11-.94,2.09-.14,2.57,2.97,1.75,9.39,2.41,8.42,1.11-.54-.72-6.57-3.58-8.28-3.68"/>
    <path class="st14" d="M129.27,427.27c-.68-.13-3.69-.55-4.32-.34-1.24.42-4.46,4.23-1.52,3.98,1.68-.15,10.86-2.66,5.84-3.64"/>
    <path class="st14" d="M136.77,429.73c-1.65-2.39-8.45,2.37-10.87,1.49.91,1.69,5.53,1.83,7.2,1.71.84-.06,4.56-1.91,3.67-3.2"/>
    <path class="st14" d="M139.79,430.74c-.58.01-6.55,2.8-4.26,4.02,1.28.68,7.55-.62,8.09-1.71.64-1.29-2.58-2.33-3.83-2.3"/>
    <path class="st14" d="M150.72,436.09c-.02-3.44-7.01-2.34-8.99-.02,0,0,5.41,1.74,7.59,1.55.98-.08,1.41-1.01,1.41-1.53"/>
    <path class="st15" d="M152.14,446.49c1.16-1.25,0-5.54-1.41-6.25-.22-.11-4.36-1.29-6.43-1.88-2.9-.83-4.82-.8-9.97-2.6-3.24-1.13-9.13-1.94-12.59-1.92-1.23,0-5.82,5.27-2.45,9.16,4.26,4.91,19.26,7.21,25.6,6.24,2.51-.38,5.51-.86,7.25-2.75"/>
  </g>
  <text class="st10" transform="translate(164.21 405.23) rotate(-55.34)"><tspan x="0" y="0">H</tspan></text>
  <text class="st11" transform="translate(223.5 321.58) rotate(-43.25)"><tspan x="0" y="0">J</tspan></text>
  <text class="st11" transform="translate(272.6 272.69) rotate(-31.7)"><tspan x="0" y="0">o</tspan></text>
  <text class="st10" transform="translate(354.84 221.37) rotate(-18.38)"><tspan x="0" y="0">R</tspan></text>
  <text class="st13" transform="translate(443.12 192.58) rotate(-6.78)"><tspan x="0" y="0">T</tspan></text>
  <text class="st12" transform="translate(575.51 184.54) rotate(13.58)"><tspan x="0" y="0">o</tspan></text>
  <text class="st12" transform="translate(670 208.13) rotate(25.42)"><tspan x="0" y="0">L</tspan></text>
  <text class="st5" transform="translate(747.01 245.16) rotate(38.16)"><tspan x="0" y="0">Â</tspan></text>
  <text class="st13" transform="translate(813.23 295.99) rotate(50.68)"><tspan x="0" y="0">R</tspan></text>
  <text class="st10" transform="translate(871.86 367.97) rotate(62.42)"><tspan x="0" y="0">S</tspan></text>
  <text class="st6" transform="translate(324.68 946.29) rotate(23.5)"><tspan x="0" y="0">K</tspan></text>
  <text class="st7" transform="translate(431.68 990.48) rotate(6.18)"><tspan x="0" y="0">A</tspan></text>
  <text class="st8" transform="translate(561.89 999.34) rotate(-9.78)"><tspan x="0" y="0">F</tspan></text>
  <text class="st9" transform="translate(654.86 981.95) rotate(-24.29)"><tspan x="0" y="0">É</tspan></text>
</svg>